# xmcd
#
# Track frame offsets:
# 150
# 16847
# 39117
# 57787
# 76285
# 93552
# 113110
# 130029
# 143522
# 162370
# 182392
# 210375
# 232687
# 252937
# 267582
# 291355
# 308587
#
# Disc length: 4364 seconds
#
#
# Revision: 2
# Processed by: cddbd v1.5.1PL2 Copyright (c) Steve Scherf et al.
# Submitted via: FreeRIP 2.91 
#
DISCID=d2110a11
DTITLE=Graeme Connors - The best... 'til now
DYEAR=2000
DGENRE=Country
TTITLE0=A Little Further North
TTITLE1=Let The Canefields Burn
TTITLE2=A Child Of This Land
TTITLE3=Pacifica
TTITLE4=Tropicali
TTITLE5=Prodigal Son
TTITLE6=Better Off Alone
TTITLE7=When I Sleep With You
TTITLE8=Songs From The Homeland
TTITLE9=Love Works
TTITLE10=The Ringer And The Princess
TTITLE11=The Great Australian Dream
TTITLE12=The Road Less Travelled
TTITLE13=Big Jimmy And Felicidad
TTITLE14=These Uncertain Times
TTITLE15=The Land Boys We Live In
TTITLE16=Being Here
EXTD=
EXTT0=
EXTT1=
EXTT2=
EXTT3=
EXTT4=
EXTT5=
EXTT6=
EXTT7=
EXTT8=
EXTT9=
EXTT10=
EXTT11=
EXTT12=
EXTT13=
EXTT14=
EXTT15=
EXTT16=
PLAYORDER=
